<?xml version="1.0" encoding="UTF-8"?>
<svg id="Layer_1" data-name="Layer 1" xmlns="http://www.w3.org/2000/svg" viewBox="0 0 64 64" fill="#39cb53">
  <path
    d="M0,53.63c.36-.34,.72-.68,1.25-1.19,0-.9,0-2.08,0-3.27,0-1.04,.44-1.53,1.46-1.53,3.5,.02,6.79-.88,9.94-2.35,2.11-.98,4.23-1.94,6.56-2.34,4.37-.74,8.06,.52,11.08,3.74,.6,.63,1.12,1.33,1.72,2.04,.4-.5,.79-1.01,1.2-1.49,2.62-3.06,5.89-4.7,9.98-4.47,2.32,.13,4.49,.84,6.58,1.8,2.27,1.04,4.52,2.15,7.01,2.58,1.43,.25,2.89,.37,4.34,.47,1.23,.09,1.64,.44,1.64,1.69,0,1.12,0,2.25,0,3.36,1.07,.4,1.25,.66,1.25,1.81,0,1.6,0,3.21,0,4.81,0,1.15-.44,1.58-1.59,1.58-8.23,0-16.46,0-24.68,0-.45,0-.73,.09-1,.51-2.21,3.49-7.25,3.48-9.46-.01-.25-.39-.5-.5-.94-.5-8.21,.01-16.41,0-24.62,.02-.77,0-1.33-.21-1.7-.89C0,57.88,0,55.76,0,53.63Zm61.48,1.63c-.2,0-.34,0-.48,0-8.23,0-16.46,0-24.69,0-1.39,0-2.49,.48-3.26,1.7-.51,.82-1.58,.84-2.08,.03-.82-1.33-2.02-1.74-3.5-1.73-8.1,.01-16.21,0-24.31,0h-.62v3.13h.78c8,0,16,0,24,0,1.15,0,1.33,.13,1.79,1.17,.54,1.25,1.52,1.91,2.87,1.95,1.28,.04,2.41-.76,2.92-1.97,.41-.99,.64-1.14,1.74-1.14,8.04,0,16.08,0,24.12,0,.24,0,.48,0,.72,0v-3.13Zm-1.27-5.11c-2.56-.15-5.03-.59-7.39-1.53-1.8-.71-3.54-1.54-5.33-2.27-2.38-.96-4.82-1.45-7.37-.78-2.73,.72-4.57,2.58-6.18,4.79-.69,.95-.77,1.91-.65,3.05,1.36-.7,2.8-.65,4.24-.65,7.31,0,14.61,0,21.92,0h.76v-2.61ZM3.78,52.76h.8c7.06,0,14.11,0,21.17,0,1.68,0,3.38-.16,4.94,.62,.26-1.25,.01-2.31-.8-3.24-.66-.75-1.24-1.57-1.96-2.26-2.14-2.05-4.7-2.89-7.66-2.53-1.82,.22-3.49,.89-5.17,1.58-2.17,.89-4.34,1.8-6.58,2.49-1.51,.47-3.13,.57-4.74,.84v2.5Z" />
  <path
    d="M33.25,0c1.05,.24,2.13,.4,3.15,.74,8.8,2.96,12.17,13.59,6.71,21.11-.84,1.16-1.69,2.32-2.53,3.48-.76,1.05-1.11,2.2-1.08,3.51,.04,2.35,0,4.71,.02,7.06,0,.61-.19,1.08-.62,1.5-.69,.66-1.37,1.34-2.03,2.03-.39,.4-.82,.59-1.39,.58-2.31-.02-4.62,.02-6.93-.03-.45-.01-.97-.24-1.32-.53-.78-.66-1.5-1.39-2.16-2.16-.29-.35-.52-.87-.53-1.32-.05-2.42-.05-4.83-.01-7.25,.02-1.19-.29-2.26-.98-3.22-.81-1.14-1.62-2.27-2.45-3.39C15.01,13.96,19.2,2.56,29.1,.31,29.65,.19,30.2,.1,30.75,0,31.58,0,32.42,0,33.25,0Zm3.81,27.47c.19-1.71,1.09-3.07,2.03-4.39,.57-.8,1.16-1.58,1.75-2.36,1.91-2.53,2.69-5.34,2.31-8.5-.76-6.23-7-10.77-13.16-9.54-8.35,1.67-11.97,11.12-6.89,17.95,1.58,2.12,3.44,4.09,3.89,6.84h3.72c.02-.09,.05-.15,.05-.2,0-3.4,0-6.79,0-10.19,0-.2-.13-.43-.27-.58-.59-.62-1.21-1.21-1.8-1.82-.48-.51-.54-1.08-.21-1.59,.45-.7,1.33-.79,1.99-.15,.52,.5,1,1.04,1.57,1.64,.57-.6,1.02-1.12,1.51-1.6,.62-.6,1.36-.62,1.88-.08,.5,.52,.47,1.23-.11,1.84-.55,.57-1.14,1.1-1.66,1.69-.2,.22-.36,.57-.36,.85-.03,3.21-.02,6.42-.02,9.62v.57h3.81Zm-.11,5.02v-2.45h-9.9v2.45h9.9Zm-10.15,2.54c.25,.46,.38,.81,.61,1.09,.3,.37,.64,.72,1.01,1.01,.24,.19,.56,.35,.86,.36,1.35,.04,2.71-.08,4.05,.04,1.39,.13,2.47-.24,3.26-1.39,.21-.31,.36-.66,.59-1.11h-10.38Z" />
  <path
    d="M12.62,15c-.41,0-.83,.02-1.24,0-.74-.04-1.27-.59-1.25-1.28,.02-.67,.53-1.19,1.25-1.21,.83-.02,1.66-.02,2.49,0,.72,.02,1.23,.55,1.25,1.21,.02,.69-.51,1.24-1.25,1.27-.41,.02-.83,0-1.24,0Z" />
  <path
    d="M51.43,12.51c.41,0,.83-.02,1.24,0,.7,.04,1.21,.59,1.2,1.26-.01,.65-.5,1.19-1.18,1.22-.87,.03-1.74,.03-2.61,0-.7-.03-1.21-.59-1.2-1.26,.01-.67,.52-1.19,1.24-1.22,.43-.02,.87,0,1.31,0,0,0,0,0,0,0Z" />
  <path
    d="M17.64,4.62c-.11,.99-1.03,1.59-1.88,1.18-.8-.4-1.57-.86-2.32-1.34-.59-.38-.72-1.07-.38-1.65,.32-.54,.99-.79,1.57-.49,.81,.41,1.62,.86,2.37,1.38,.29,.2,.43,.61,.63,.93Z" />
  <path
    d="M17.66,22.92c-.23,.32-.4,.73-.71,.94-.7,.48-1.45,.89-2.21,1.29-.64,.34-1.35,.12-1.68-.46-.34-.6-.18-1.29,.45-1.68,.72-.45,1.46-.89,2.22-1.27,.87-.44,1.81,.15,1.93,1.19Z" />
  <path
    d="M49.75,25.31c-.13-.04-.36-.08-.55-.19-.69-.38-1.38-.77-2.05-1.18-.67-.41-.87-1.1-.54-1.71,.35-.63,1.08-.83,1.78-.44,.73,.4,1.46,.81,2.16,1.26,.5,.33,.69,.82,.49,1.42-.19,.56-.6,.82-1.28,.85Z" />
  <path
    d="M51.12,3.66c-.11,.17-.27,.59-.58,.8-.72,.5-1.49,.91-2.26,1.32-.61,.32-1.3,.11-1.64-.44-.35-.58-.2-1.31,.41-1.7,.74-.47,1.49-.92,2.27-1.31,.84-.42,1.78,.17,1.8,1.32Z" />
</svg>