<?xml version="1.0" encoding="UTF-8"?>
<svg id="Layer_1" data-name="Layer 1" xmlns="http://www.w3.org/2000/svg" viewBox="0 0 64 64" fill="#fcd55d">
  <path
    d="M39.37,59.55h-.93c-9.42,0-18.85,0-28.27,0-2.74,0-4.88-1.61-5.5-4.14-.13-.52-.17-1.07-.17-1.61,0-15.98,0-31.95,0-47.93C4.5,2.27,6.78,0,10.39,0c10.81,0,21.61,0,32.42,0,3.64,0,5.88,2.26,5.88,5.93,0,7.09,0,14.18,0,21.27v.77c.81,.26,1.62,.44,2.36,.76,5.24,2.24,8.25,6.22,8.44,11.93,.19,5.52-2.35,9.69-7.23,12.34-.41,.22-.49,.42-.39,.85,.51,2.3,.97,4.62,1.47,6.92,.21,.98,.11,1.88-.68,2.55-.86,.73-1.84,.77-2.85,.31-1.08-.49-2.16-1-3.25-1.45-.24-.1-.6-.1-.83,0-1.11,.48-2.2,1-3.29,1.53-.91,.44-1.77,.38-2.56-.24-.79-.62-1.04-1.46-.83-2.44,.1-.46,.2-.93,.33-1.49Zm1.52-6.13c-6.26-2.89-8.51-8.69-7.73-14.07,.41-2.81,1.54-5.32,3.48-7.41,2.5-2.7,5.66-3.95,9.36-4.05v-.82c0-7.02,0-14.05,0-21.07,0-.28,0-.56-.02-.84-.1-1.32-1.13-2.4-2.44-2.56-.32-.04-.65-.05-.97-.05-10.72,0-21.44,0-32.16,0-.24,0-.48,0-.71,.02-1.17,.1-2,.71-2.4,1.79-.21,.57-.35,1.21-.35,1.82-.02,15.87-.02,31.73-.01,47.6,0,2.19,1.13,3.32,3.32,3.32,9.68,0,19.36,0,29.05,0h.7c.31-1.27,.59-2.46,.89-3.69Zm5.65-1.44c6.07-.29,10.56-5.24,10.3-11.33-.25-5.78-5.27-10.42-11-10.18-5.94,.25-10.56,5.34-10.28,11.32,.27,5.82,5.28,10.47,10.98,10.2Zm-4.88,9.35c1.25-.56,2.38-1.03,3.48-1.59,.71-.36,1.34-.31,2.03,.02,1.13,.53,2.28,1.01,3.55,1.57-.52-2.45-1.02-4.78-1.49-7h-5.94c-.52,2.24-1.05,4.55-1.62,7Z" />
  <path
    d="M25.44,16.9c4.19,0,8.38,0,12.58,0,.99,0,1.49,.46,1.47,1.32-.02,.66-.39,1.1-1.04,1.2-.25,.04-.52,.04-.78,.04-8.15,0-16.29,0-24.44,0-.26,0-.52,0-.77-.05-.67-.13-1.08-.67-1.03-1.36,.05-.68,.47-1.11,1.18-1.14,.93-.03,1.86-.01,2.79-.01,3.35,0,6.7,0,10.05,0Z" />
  <path
    d="M25.47,24.97c4.19,0,8.38,0,12.58,0,.95,0,1.45,.45,1.44,1.28,0,.69-.38,1.15-1.07,1.24-.26,.04-.52,.03-.78,.03-8.13,0-16.25,0-24.38,0-.19,0-.39,0-.58,0-.8-.07-1.29-.61-1.26-1.36,.04-.75,.5-1.18,1.34-1.18,1.82,0,3.63,0,5.45,0,2.42,0,4.84,0,7.26,0Z" />
  <path
    d="M25.41,8.97c4.21,0,8.43,0,12.64,0,.97,0,1.47,.49,1.43,1.35-.03,.66-.42,1.08-1.08,1.16-.21,.03-.43,.03-.65,.03-8.19,0-16.38,0-24.57,0-.15,0-.3,0-.45,0-.82-.05-1.32-.56-1.31-1.31,0-.77,.49-1.23,1.35-1.23,2.59,0,5.19,0,7.78,0,1.62,0,3.24,0,4.86,0Z" />
  <path
    d="M53.91,41.24c0,4.23-3.46,7.68-7.68,7.67-4.17-.01-7.63-3.48-7.64-7.66-.01-4.22,3.45-7.69,7.66-7.7,4.23,0,7.66,3.44,7.65,7.68Zm-7.79,5.1c2.82,0,5.13-2.29,5.13-5.1,0-2.81-2.31-5.12-5.13-5.11-2.8,0-5.08,2.28-5.09,5.08-.01,2.84,2.26,5.14,5.08,5.14Z" />
</svg>