<?xml version="1.0" encoding="UTF-8"?>
<svg id="Layer_1" data-name="Layer 1" xmlns="http://www.w3.org/2000/svg" viewBox="0 0 64 64" fill="#fff">
  <path
    d="M0,41.14c.47-1.16,1.23-1.94,2.56-2.04,.39-.03,1.13-1.94,.91-2.28-1.05-1.6-.95-2.63,.4-3.98,.37-.37,.73-.74,1.11-1.1,1.01-.97,2.35-1.08,3.46-.24,.36,.27,.64,.33,1,.08,.03-.02,.07-.04,.11-.05,.87-.22,1.39-.65,1.6-1.65,.24-1.12,1.21-1.65,2.35-1.71,.71-.04,1.42-.03,2.12,0,1.43,.06,2.42,.96,2.6,2.39,.04,.34,.14,.54,.48,.61,.14,.03,.28,.08,.41,.15,.7,.42,1.31,.49,2.06-.06,.84-.61,2.04-.38,2.83,.33,.6,.54,1.18,1.12,1.72,1.72,.83,.91,.91,2.23,.18,3.22-.32,.43-.29,.74-.11,1.22,.32,.84,.66,1.39,1.67,1.59,1.05,.21,1.61,1.14,1.68,2.24,.05,.79,.05,1.59,0,2.37-.09,1.36-.96,2.27-2.31,2.46-.38,.05-.63,.18-.69,.57,0,.04-.03,.08-.05,.12-.43,.81-.6,1.51,.02,2.42,.59,.85,.33,1.91-.38,2.72-.54,.61-1.11,1.19-1.72,1.73-.97,.87-2.26,.9-3.32,.1-.33-.25-.6-.33-.94-.09-.07,.05-.15,.08-.23,.1-.81,.23-1.35,.58-1.5,1.58-.16,1.05-1.27,1.73-2.39,1.75-.71,.02-1.42,.02-2.12,0-1.35-.03-2.36-.92-2.56-2.27-.06-.42-.19-.7-.64-.77-.08-.01-.16-.05-.23-.09-.72-.42-1.32-.5-2.12,.04-.92,.63-1.98,.4-2.83-.34-.61-.53-1.18-1.12-1.73-1.72-.83-.92-.92-2.23-.17-3.22,.33-.44,.3-.75,.11-1.22-.33-.81-.63-1.44-1.68-1.58C.78,46.1,.33,45.23,0,44.39v-3.25Zm22.31-7.71c-.31,.24-.59,.46-.87,.68-.77,.61-1.09,.6-1.99,.16-.76-.38-1.55-.7-2.35-.98-.88-.3-1.15-.57-1.24-1.49q-.11-1.14-1.27-1.14c-1.11,0-1.13,0-1.27,1.13-.09,.69-.33,1.21-1.05,1.46-.95,.34-1.89,.74-2.81,1.16-.55,.25-1.04,.24-1.52-.13-.36-.28-.72-.55-.94-.72-.61,.55-1.16,1.04-1.72,1.55,.22,.29,.44,.56,.66,.84,.57,.74,.56,1.1,.15,1.94-.38,.78-.7,1.59-.99,2.42-.29,.83-.58,1.11-1.46,1.21-.37,.04-.74,.09-1.13,.14v2.27c.4,.05,.78,.11,1.17,.14,.79,.07,1.19,.5,1.43,1.25,.27,.85,.63,1.67,1.03,2.47,.33,.66,.32,1.22-.15,1.79-.26,.31-.5,.65-.81,1.06,.28,.24,.53,.42,.75,.64,.9,.88,.9,.9,1.88,.12,.51-.4,1.01-.5,1.62-.23,.94,.42,1.9,.82,2.87,1.19,.57,.22,.9,.57,.97,1.17,.05,.45,.13,.9,.19,1.35h2.26c.05-.42,.11-.81,.15-1.2,.06-.7,.42-1.12,1.09-1.36,.92-.32,1.81-.71,2.7-1.12,.59-.28,1.11-.27,1.63,.14,.34,.27,.68,.53,.91,.7,.59-.55,1.13-1.06,1.68-1.58-.21-.27-.41-.56-.64-.82-.55-.61-.59-1.23-.16-1.93,.31-.51,.63-1.06,.75-1.64,.27-1.39,.95-2.16,2.44-2.09,.14,0,.4-.25,.41-.39,.05-.62,.02-1.24,.02-1.92-.46-.06-.86-.11-1.27-.16-.64-.07-1.06-.38-1.29-1.01-.35-.95-.73-1.9-1.16-2.82-.27-.58-.25-1.08,.14-1.57,.28-.35,.55-.71,.81-1.04-.56-.57-1.05-1.07-1.61-1.64Z" />
  <path
    d="M29.3,17.47c-.36-.58-.8-1.12-1.06-1.75-.5-1.21-.21-2.34,.67-3.29,.64-.69,1.31-1.34,1.98-1.99,1.31-1.29,2.96-1.43,4.38-.26,.57,.46,.99,.56,1.62,.17,.49-.3,1.05-.55,1.6-.67,.7-.15,.89-.53,.97-1.19,.24-1.95,1.45-2.97,3.42-2.98,.73,0,1.46,0,2.19,0,2.21,0,3.4,1.05,3.63,3.26,.05,.47,.21,.67,.65,.82,.76,.26,1.52,.57,2.24,.93,.38,.2,.62,.16,.93-.11,.86-.77,1.86-1.26,3.02-.91,.58,.17,1.14,.5,1.61,.89,.69,.57,1.28,1.25,1.91,1.89,1.3,1.33,1.42,3,.24,4.44-.43,.52-.54,.92-.17,1.52,.31,.49,.56,1.04,.67,1.6,.15,.8,.62,.97,1.33,1.04,1.45,.14,2.61,1.12,2.76,2.54,.14,1.36,.15,2.76,0,4.11-.18,1.52-1.37,2.43-3.08,2.57-.52,.04-.74,.23-.9,.72-.24,.73-.54,1.44-.89,2.13-.21,.42-.19,.69,.12,1.04,.82,.9,1.19,1.94,.85,3.17-.33,1.21-3.12,3.96-4.34,4.27-1.12,.28-2.11-.02-2.95-.78-.43-.39-.79-.43-1.31-.14-.59,.33-1.24,.58-1.89,.79-.51,.16-.75,.37-.81,.96-.16,1.69-.98,2.83-2.41,3.01-1.45,.18-2.95,.17-4.41,0-1.32-.15-2.24-1.29-2.37-2.63-.07-.78-.28-1.29-1.15-1.45-.56-.1-1.11-.37-1.6-.68-.54-.34-.91-.23-1.36,.16-.84,.75-1.84,1.03-2.96,.73-1.17-.31-3.97-3.08-4.3-4.24-.34-1.22,.02-2.27,.84-3.17,.34-.37,.33-.66,.11-1.09-.37-.74-.67-1.52-.95-2.31-.12-.33-.28-.45-.62-.48-2.39-.25-3.39-1.37-3.4-3.75,0-.77,0-1.54,0-2.31,.03-1.73,1.16-3.02,2.89-3.18,.7-.07,1.09-.27,1.28-1.02,.22-.84,.66-1.61,.99-2.39Zm3.97-5.61c-.17,.08-.35,.12-.46,.23-.72,.7-1.45,1.38-2.1,2.14-.15,.17-.1,.65,.03,.88,.29,.5,.7,.93,1.06,1.39,.39,.5,.37,.99,.11,1.57-.59,1.32-1.15,2.67-1.66,4.02-.23,.61-.58,.99-1.24,1.06-.52,.05-1.03,.14-1.55,.19-.59,.05-.85,.34-.83,.93,.02,.81,.02,1.63,0,2.44-.02,.6,.28,.88,.85,.93,.52,.05,1.04,.1,1.55,.17,.62,.08,.98,.43,1.21,1.02,.53,1.37,1.09,2.74,1.69,4.08,.26,.58,.26,1.07-.13,1.57-.34,.42-.66,.86-1.01,1.28-.37,.44-.32,.81,.09,1.2,.59,.56,1.17,1.13,1.72,1.73,.43,.46,.84,.45,1.3,.05,.38-.33,.78-.62,1.17-.93,.51-.41,1.02-.41,1.62-.14,1.32,.6,2.66,1.15,4.02,1.67,.64,.24,1,.63,1.06,1.31,.05,.54,.13,1.08,.19,1.61,.06,.48,.33,.68,.8,.68,.87-.01,1.75-.02,2.62,0,.52,0,.77-.24,.83-.73,.06-.54,.12-1.08,.18-1.61,.07-.65,.43-1.02,1.04-1.26,1.37-.53,2.73-1.09,4.07-1.69,.56-.25,1.04-.26,1.51,.12,.46,.36,.92,.72,1.37,1.08,.37,.29,.72,.27,1.05-.06,.63-.64,1.26-1.27,1.9-1.9,.34-.34,.35-.68,.05-1.05-.33-.4-.65-.82-.96-1.23-.53-.7-.5-1.03-.13-1.83,.57-1.24,1.09-2.51,1.57-3.79,.29-.77,.58-1.08,1.42-1.18,.5-.05,.99-.1,1.49-.16,.45-.06,.73-.28,.73-.77,0-.92,0-1.83,0-2.75,0-.41-.2-.67-.62-.72-.58-.08-1.15-.16-1.73-.22-.66-.07-1.01-.44-1.25-1.05-.52-1.35-1.07-2.7-1.66-4.02-.27-.61-.27-1.11,.14-1.62,.35-.44,.7-.88,1.04-1.33,.27-.35,.28-.69-.04-1.01-.65-.65-1.29-1.3-1.94-1.95-.34-.34-.69-.33-1.05-.04-.42,.34-.85,.67-1.27,1.01-.53,.43-1.05,.42-1.67,.14-1.3-.6-2.62-1.14-3.96-1.64-.64-.24-1.01-.61-1.09-1.29-.05-.52-.12-1.04-.17-1.55-.06-.51-.32-.79-.86-.79-.85,0-1.71,0-2.56,0-.53,0-.81,.25-.86,.78-.06,.54-.13,1.08-.19,1.61-.07,.6-.39,.97-.95,1.2-1.4,.56-2.8,1.14-4.19,1.74-.53,.23-1,.24-1.46-.11-.45-.34-.88-.7-1.33-1.04-.16-.12-.35-.21-.54-.32Z" />
  <path
    d="M13.95,18.32c.23-.07,.46-.17,.7-.19,.55-.05,.97,.19,1.22,.69,.26,.53,.19,1.08-.26,1.42-.99,.76-2.02,1.47-3.07,2.14-.56,.36-1.19,.13-1.63-.47-.61-.85-1.2-1.7-1.78-2.57-.46-.68-.37-1.42,.21-1.83,.6-.43,1.24-.31,1.8,.35,.05,.06,.11,.12,.22,.25,.09-.42,.17-.78,.24-1.13,1.47-6.8,7.69-11.68,14.64-11.47,.27,0,.54,.03,.81,.07,.73,.11,1.16,.64,1.1,1.34-.06,.68-.59,1.12-1.33,1.13-.81,0-1.62-.01-2.43,.06-5.14,.46-9.81,4.96-10.48,10.08,0,.04,.02,.08,.04,.12Z" />
  <path
    d="M50.39,50.53c-.72,.03-1.24-.16-1.51-.78-.31-.71,.09-1.53,.89-1.69,1.14-.23,2.29-.42,3.44-.59,.63-.09,1.18,.26,1.31,.9,.25,1.18,.45,2.37,.61,3.57,.09,.66-.37,1.18-1,1.31-.6,.12-1.19-.25-1.4-.88-.05-.16-.09-.32-.11-.39-.96,1.01-1.86,2.14-2.94,3.06-4.59,3.92-11.03,4.55-16.35,1.69-.81-.44-1.09-1.11-.73-1.79,.36-.69,1.05-.84,1.88-.43,4.55,2.29,8.91,1.97,13.07-.95,1.12-.78,2.02-1.79,2.84-3.03Z" />
  <path
    d="M14.61,36.09c3.7,.01,6.66,2.98,6.66,6.68,0,3.69-2.97,6.68-6.66,6.7-3.67,.02-6.74-3.06-6.71-6.73,.03-3.68,3.04-6.67,6.71-6.65Zm0,2.5c-2.3,0-4.17,1.84-4.21,4.14-.03,2.3,1.88,4.23,4.19,4.24,2.29,0,4.17-1.85,4.19-4.16,.02-2.35-1.83-4.22-4.17-4.22Z" />
  <path
    d="M44.08,37.57c-6.12,.08-11.4-4.68-12.07-10.86-.66-6.1,3.56-11.89,9.53-13.1,5.22-1.06,10.4,1.26,13,5.82,.54,.94,.45,1.66-.24,2.07-.7,.41-1.36,.12-1.92-.81-2.03-3.34-5.02-5.02-8.9-4.8-3.68,.2-6.41,2.09-8.05,5.39-2.29,4.59-.45,10.19,4.08,12.64,4.51,2.44,10.17,.88,12.8-3.54,.07-.13,.14-.26,.22-.38,.45-.74,1.15-.97,1.79-.58,.61,.37,.78,1.09,.39,1.8-1.22,2.22-2.94,3.92-5.2,5.06-1.7,.86-3.51,1.28-5.41,1.29Z" />
  <path
    d="M37.7,25.47c0-3.52,2.82-6.36,6.34-6.37,3.54-.01,6.42,2.87,6.39,6.39-.03,3.51-2.89,6.37-6.38,6.36-3.5,0-6.35-2.87-6.35-6.38Zm6.35-3.87c-2.14,0-3.84,1.7-3.85,3.84-.01,2.15,1.74,3.91,3.87,3.91,2.11,0,3.84-1.74,3.86-3.86,.02-2.15-1.72-3.89-3.88-3.89Z" />
  <path
    d="M56.14,25.48c0,.67-.54,1.23-1.21,1.25-.68,.02-1.27-.58-1.26-1.26,0-.7,.58-1.24,1.28-1.23,.69,.02,1.19,.55,1.19,1.24Z" />
</svg>